<?xml version="1.0" encoding="UTF-8" standalone="no"?>
<svg
   xmlns:dc="http://purl.org/dc/elements/1.1/"
   xmlns:cc="http://creativecommons.org/ns#"
   xmlns:rdf="http://www.w3.org/1999/02/22-rdf-syntax-ns#"
   xmlns:svg="http://www.w3.org/2000/svg"
   xmlns="http://www.w3.org/2000/svg"
   xmlns:sodipodi="http://sodipodi.sourceforge.net/DTD/sodipodi-0.dtd"
   xmlns:inkscape="http://www.inkscape.org/namespaces/inkscape"
   version="1.1"
   id="Calque_1"
   x="0px"
   y="0px"
   width="95.796px"
   height="83.713px"
   viewBox="0 0 95.796 83.713"
   enable-background="new 0 0 95.796 83.713"
   xml:space="preserve"
   sodipodi:docname="A51_bolt.svg"
   inkscape:version="1.0.1 (3bc2e813f5, 2020-09-07)"><metadata
   id="metadata21"><rdf:RDF><cc:Work
       rdf:about=""><dc:format>image/svg+xml</dc:format><dc:type
         rdf:resource="http://purl.org/dc/dcmitype/StillImage" /><dc:title></dc:title></cc:Work></rdf:RDF></metadata><defs
   id="defs19" /><sodipodi:namedview
   pagecolor="#ffffff"
   bordercolor="#666666"
   borderopacity="1"
   objecttolerance="10"
   gridtolerance="10"
   guidetolerance="10"
   inkscape:pageopacity="0"
   inkscape:pageshadow="2"
   inkscape:window-width="1920"
   inkscape:window-height="1001"
   id="namedview17"
   showgrid="false"
   inkscape:zoom="3.5054212"
   inkscape:cx="3.8744831"
   inkscape:cy="29.13163"
   inkscape:window-x="-9"
   inkscape:window-y="-9"
   inkscape:window-maximized="1"
   inkscape:current-layer="Calque_1" />
<path
   fill="#ED1C24"
   d="M52.197,2.271C51.318,0.877,49.759,0,47.96,0c-1.719,0-2.479,0.837-3.398,2.113L0.95,75.294  c-1.52,1.992-1.16,5.142,0.68,6.975c1.04,1.037,2.238,1.515,3.597,1.436l86.385-0.04c0.999-0.159,1.959-0.638,2.719-1.396  c1.479-1.515,1.839-3.706,1.079-5.58L52.197,2.271z"
   id="path2" />
<path
   fill="none"
   stroke="#ED1C24"
   stroke-width="0"
   stroke-miterlimit="3.863"
   d="M52.197,2.271C51.318,0.877,49.759,0,47.96,0  c-1.719,0-2.479,0.837-3.398,2.113L0.95,75.294c-1.52,1.992-1.16,5.142,0.68,6.975c1.04,1.037,2.238,1.515,3.597,1.436l86.385-0.04  c0.999-0.159,1.959-0.638,2.719-1.396c1.479-1.515,1.839-3.706,1.079-5.58L52.197,2.271z"
   id="path4" />
<polygon
   fill-rule="evenodd"
   clip-rule="evenodd"
   fill="#FFFFFF"
   points="81.138,72.902 47.92,15.466 14.701,72.902 "
   id="polygon6" />
<polygon
   fill="none"
   stroke="#ED1C24"
   stroke-width="0"
   stroke-miterlimit="3.863"
   points="81.138,72.902 47.92,15.466   14.701,72.902 "
   id="polygon8" />
<line
   fill="none"
   stroke="#000000"
   stroke-width="0"
   stroke-miterlimit="3.863"
   x1="46.521"
   y1="65.488"
   x2="48"
   y2="65.488"
   id="line10" />

<path
   fill="none"
   stroke="#120C0E"
   stroke-width="0"
   stroke-miterlimit="3.863"
   d="M48.119,62.778c1.16,0.358,2,1.435,2,2.71  c0,1.555-1.279,2.83-2.838,2.83c-1.56,0-2.838-1.275-2.838-2.83c0-1.275,0.839-2.352,1.999-2.71l-2.838-31.091  c0-2.033,1.638-3.666,3.677-3.666c2.039,0,3.678,1.633,3.678,3.666L48.119,62.778z"
   id="path14" />
<g
   transform="matrix(0.01961077,0,0,-0.02328435,40.132063,65.091484)"
   id="g3015"><path
     d="m 885,970 q 18,-20 7,-44 L 352,-231 q -13,-25 -42,-25 -4,0 -14,2 -17,5 -25.5,19 -8.5,14 -4.5,30 L 463,603 57,502 q -4,-1 -12,-1 -18,0 -31,11 -18,15 -13,39 l 201,825 q 4,14 16,23 12,9 28,9 h 328 q 19,0 32,-12.5 13,-12.5 13,-29.5 0,-8 -5,-18 L 443,885 839,983 q 8,2 12,2 19,0 34,-15 z"
     id="path3017"
     inkscape:connector-curvature="0"
     style="fill:currentColor" /></g></svg>
