<?xml version="1.0" encoding="UTF-8" standalone="no"?>
<svg
   xmlns:dc="http://purl.org/dc/elements/1.1/"
   xmlns:cc="http://creativecommons.org/ns#"
   xmlns:rdf="http://www.w3.org/1999/02/22-rdf-syntax-ns#"
   xmlns:svg="http://www.w3.org/2000/svg"
   xmlns="http://www.w3.org/2000/svg"
   xmlns:sodipodi="http://sodipodi.sourceforge.net/DTD/sodipodi-0.dtd"
   xmlns:inkscape="http://www.inkscape.org/namespaces/inkscape"
   width="74.125893mm"
   height="126.95184mm"
   viewBox="0 0 74.125893 126.95184"
   version="1.1"
   id="svg8"
   inkscape:version="1.0.1 (3bc2e813f5, 2020-09-07)"
   sodipodi:docname="windturbine_gauge.svg">
  <defs
     id="defs2" />
  <sodipodi:namedview
     id="base"
     pagecolor="#ffffff"
     bordercolor="#666666"
     borderopacity="1.0"
     inkscape:pageopacity="0.0"
     inkscape:pageshadow="2"
     inkscape:zoom="0.7"
     inkscape:cx="-0.17961505"
     inkscape:cy="235.21179"
     inkscape:document-units="mm"
     inkscape:current-layer="g76"
     inkscape:document-rotation="0"
     showgrid="false"
     inkscape:window-width="1544"
     inkscape:window-height="1030"
     inkscape:window-x="224"
     inkscape:window-y="0"
     inkscape:window-maximized="0"
     inkscape:lockguides="false"
     fit-margin-top="0"
     fit-margin-left="0"
     fit-margin-right="0"
     fit-margin-bottom="0" />
  <metadata
     id="metadata5">
    <rdf:RDF>
      <cc:Work
         rdf:about="">
        <dc:format>image/svg+xml</dc:format>
        <dc:type
           rdf:resource="http://purl.org/dc/dcmitype/StillImage" />
        <dc:title></dc:title>
      </cc:Work>
    </rdf:RDF>
  </metadata>
  <g
     inkscape:label="Laag 1"
     inkscape:groupmode="layer"
     id="layer1"
     transform="translate(-68.714658,-76.03877)">
    <g
       id="g33"
       transform="matrix(1.26951,0,0,1.26951,68.714658,76.039617)">
      <circle
         cx="38.721001"
         cy="33.620998"
         r="4.1479998"
         id="circle10" />
      <path
         d="M 45.875,29.436 C 57.268,8.877 59.217,0.677 58.122,0.045 c -1.091,-0.631 -7.217,5.15 -19.313,25.282 3.013,0.032 5.638,1.676 7.066,4.109 z"
         id="path12" />
      <path
         d="m 30.424,33.621 c 0,-1.486 0.397,-2.879 1.083,-4.087 C 8.059,29.949 0,32.359 0,33.621 0,34.882 8.058,37.293 31.505,37.707 30.821,36.5 30.424,35.108 30.424,33.621 Z"
         id="path14" />
      <path
         d="M 45.884,37.794 C 44.46,40.23 41.838,41.877 38.823,41.913 50.911,62.021 57.03,67.798 58.124,67.167 59.217,66.535 57.271,58.34 45.884,37.794 Z"
         id="path16" />
      <path
         d="M 34.573,42.889 V 44.684 100 H 42.87 V 56.07 C 40.49,52.552 37.745,48.22 34.573,42.889 Z"
         id="path18" />
    </g>
    <g
       style="fill:#000000"
       id="g76"
       transform="matrix(0.26458333,0,0,0.26458333,70.718741,165.94727)">
      <line
         fill="none"
         stroke="#000000"
         stroke-width="1.42911"
         stroke-linecap="round"
         stroke-miterlimit="10"
         x1="117.93044"
         y1="124.68243"
         x2="104.3167"
         y2="116.82517"
         id="line37"
         style="stroke:#646464;stroke-opacity:1" />
      <line
         fill="none"
         stroke="#000000"
         stroke-width="1.42911"
         stroke-linecap="round"
         stroke-miterlimit="10"
         x1="124.6873"
         y1="99.468575"
         x2="108.96706"
         y2="99.470001"
         id="line39"
         style="stroke:#646464;stroke-opacity:1" />
      <line
         fill="none"
         stroke="#000000"
         stroke-width="1.42911"
         stroke-linecap="round"
         stroke-miterlimit="10"
         x1="117.92902"
         y1="74.251854"
         x2="104.3167"
         y2="82.113419"
         id="line41"
         style="stroke:#646464;stroke-opacity:1" />
      <line
         fill="none"
         stroke="#000000"
         stroke-width="1.42911"
         stroke-linecap="round"
         stroke-miterlimit="10"
         x1="99.470581"
         y1="55.794846"
         x2="91.610451"
         y2="69.407158"
         id="line43"
         style="stroke:#646464;stroke-opacity:1" />
      <line
         fill="none"
         stroke="#000000"
         stroke-width="1.42911"
         stroke-linecap="round"
         stroke-miterlimit="10"
         x1="74.255287"
         y1="49.037994"
         x2="74.255287"
         y2="64.758247"
         id="line45"
         style="stroke:#646464;stroke-opacity:1" />
      <line
         fill="none"
         stroke="#000000"
         stroke-width="1.42911"
         stroke-linecap="round"
         stroke-miterlimit="10"
         x1="49.04142"
         y1="55.794846"
         x2="56.901546"
         y2="69.408585"
         id="line47"
         style="stroke:#646464;stroke-opacity:1" />
      <line
         fill="none"
         stroke="#000000"
         stroke-width="1.42911"
         stroke-linecap="round"
         stroke-miterlimit="10"
         x1="30.581553"
         y1="74.253288"
         x2="44.196724"
         y2="82.113419"
         id="line49"
         style="stroke:#646464;stroke-opacity:1" />
      <line
         fill="none"
         stroke="#000000"
         stroke-width="1.42911"
         stroke-linecap="round"
         stroke-miterlimit="10"
         x1="23.82613"
         y1="99.470001"
         x2="39.546387"
         y2="99.470001"
         id="line51"
         style="stroke:#646464;stroke-opacity:1" />
      <line
         fill="none"
         stroke="#000000"
         stroke-width="1.42911"
         stroke-linecap="round"
         stroke-miterlimit="10"
         x1="30.581553"
         y1="124.68388"
         x2="44.196724"
         y2="116.82374"
         id="line53"
         style="stroke:#646464;stroke-opacity:1" />
      <path
         d="m 72.566072,91.679905 c -0.654534,0 -1.279057,0.110041 -1.885002,0.267244 L 44.52685,70.027394 37.920054,67.577892 41.10555,73.281487 65.103237,98.378163 c -0.03144,0.281536 -0.08575,0.558784 -0.08575,0.848894 0,4.158723 3.385572,7.542863 7.545724,7.542863 4.161581,0 7.545723,-3.38414 7.545723,-7.542863 0.0029,-4.16301 -3.381284,-7.547152 -7.542865,-7.547152 z"
         id="path55"
         style="stroke-width:1.42911" />
    </g>
  </g>
</svg>
