<?xml version="1.0" encoding="UTF-8" standalone="no"?>
<!-- Created with Inkscape (http://www.inkscape.org/) -->
<svg xmlns:svg="http://www.w3.org/2000/svg" xmlns="http://www.w3.org/2000/svg" version="1.0" width="340.15799" height="149.63" viewBox="0 0 340.158 149.63" id="Layer_1" xml:space="preserve" style="overflow:visible"><defs id="defs2393"/>
<path d="M 0.682,131.531 L 18.584,95.723 C 18.542,95.806 18.467,95.872 18.376,95.903 L 80.767,75.127 C 80.914,75.078 81.014,74.941 81.014,74.787 C 81.014,74.632 80.915,74.494 80.767,74.445 L 18.376,53.667 C 18.467,53.698 18.542,53.762 18.584,53.847 L 0.682,18.042 C 0.723,18.127 0.731,18.226 0.701,18.317 C 0.671,18.407 0.605,18.482 0.52,18.524 L 36.325,0.681 C 36.241,0.724 36.142,0.73 36.052,0.7 L 169.995,45.307 C 170.069,45.332 170.149,45.332 170.222,45.307 L 304.166,0.7 C 304.075,0.73 303.978,0.724 303.892,0.681 L 339.637,18.524 C 339.553,18.482 339.488,18.407 339.458,18.316 C 339.428,18.225 339.435,18.127 339.478,18.042 L 321.575,53.848 C 321.616,53.763 321.69,53.699 321.783,53.668 L 259.453,74.445 C 259.305,74.494 259.209,74.632 259.209,74.787 C 259.209,74.941 259.305,75.079 259.453,75.127 L 321.783,95.903 C 321.69,95.873 321.616,95.806 321.575,95.723 L 339.478,131.531 C 339.389,131.353 339.461,131.137 339.637,131.048 L 303.892,148.95 C 303.978,148.908 304.076,148.901 304.166,148.93 L 170.223,104.262 C 170.149,104.239 170.07,104.239 169.995,104.262 L 36.051,148.93 C 36.142,148.901 36.241,148.908 36.327,148.95 L 0.521,131.047 C 0.605,131.09 0.671,131.166 0.701,131.255 C 0.73,131.346 0.723,131.446 0.682,131.531 z" id="path2384" style="fill:#e31e26"/>
<path d="M 36.28,149.613 L 170.223,104.944 C 170.149,104.969 170.07,104.969 169.995,104.944 L 303.939,149.613 C 304.03,149.642 304.127,149.635 304.213,149.593 L 339.96,131.691 C 340.137,131.6 340.208,131.385 340.119,131.208 L 322.218,95.402 C 322.174,95.315 322.101,95.253 322.008,95.22 L 259.678,74.444 C 259.825,74.493 259.924,74.631 259.924,74.786 C 259.924,74.94 259.825,75.078 259.678,75.126 L 322.008,54.349 C 322.101,54.319 322.174,54.254 322.218,54.169 L 340.119,18.363 C 340.163,18.277 340.17,18.179 340.14,18.089 C 340.11,17.998 340.043,17.923 339.958,17.881 L 304.212,0.038 C 304.127,-0.004 304.027,-0.011 303.939,0.018 L 169.995,44.626 C 170.069,44.601 170.149,44.601 170.222,44.626 L 36.279,0.018 C 36.189,-0.012 36.091,-0.005 36.006,0.038 L 0.2,17.88 C 0.114,17.922 0.049,17.998 0.018,18.088 C -0.012,18.179 -0.004,18.277 0.038,18.363 L 17.941,54.169 C 17.984,54.254 18.059,54.318 18.15,54.349 L 80.54,75.126 C 80.393,75.077 80.294,74.94 80.294,74.786 C 80.294,74.631 80.393,74.493 80.541,74.444 L 18.15,95.22 C 18.059,95.252 17.984,95.315 17.941,95.402 L 0.038,131.208 C -0.004,131.295 -0.011,131.393 0.018,131.483 C 0.049,131.573 0.114,131.648 0.198,131.691 L 36.004,149.593 C 36.091,149.635 36.189,149.642 36.28,149.613 z" id="path2386" style="fill:#e10000;fill-opacity:1"/>
<path d="M 32.555,40.889 L 39.68,19.393 C 39.65,19.484 39.586,19.56 39.5,19.602 C 39.416,19.645 39.316,19.651 39.225,19.621 L 169.995,63.211 C 170.07,63.235 170.149,63.235 170.223,63.211 L 300.933,19.621 C 300.842,19.652 300.743,19.646 300.658,19.602 C 300.573,19.56 300.509,19.484 300.478,19.393 L 307.603,40.889 C 307.541,40.701 307.642,40.498 307.832,40.435 L 205.743,74.445 C 205.595,74.494 205.497,74.632 205.497,74.787 C 205.497,74.941 205.595,75.078 205.743,75.127 L 307.832,109.196 C 307.642,109.133 307.54,108.93 307.603,108.74 L 300.478,130.178 C 300.508,130.088 300.573,130.012 300.658,129.969 C 300.743,129.928 300.843,129.92 300.933,129.95 L 170.223,86.36 C 170.149,86.336 170.07,86.336 169.995,86.36 L 39.225,129.951 C 39.316,129.921 39.415,129.929 39.5,129.97 C 39.585,130.013 39.65,130.089 39.68,130.179 L 32.555,108.741 C 32.617,108.931 32.516,109.134 32.327,109.197 L 134.416,75.128 C 134.562,75.079 134.661,74.942 134.661,74.788 C 134.661,74.633 134.562,74.495 134.416,74.446 L 32.326,40.436 C 32.515,40.498 32.618,40.701 32.555,40.889 z" id="path2388" style="fill:#ffffff"/>
<path d="M 134.189,74.444 L 32.1,108.514 C 31.912,108.577 31.81,108.779 31.872,108.967 L 38.997,130.405 C 39.027,130.496 39.093,130.57 39.177,130.613 C 39.261,130.655 39.362,130.662 39.451,130.633 L 170.222,87.042 C 170.148,87.065 170.069,87.065 169.994,87.042 L 300.704,130.633 C 300.795,130.662 300.893,130.655 300.977,130.613 C 301.064,130.57 301.128,130.496 301.159,130.405 L 308.284,108.967 C 308.346,108.779 308.244,108.577 308.055,108.514 L 205.967,74.444 C 206.114,74.494 206.213,74.631 206.213,74.786 C 206.213,74.94 206.114,75.078 205.967,75.126 L 308.055,41.116 C 308.243,41.054 308.345,40.85 308.284,40.661 L 301.159,19.166 C 301.129,19.075 301.064,19 300.977,18.958 C 300.893,18.915 300.794,18.908 300.704,18.939 L 169.994,62.527 C 170.069,62.503 170.148,62.503 170.222,62.527 L 39.452,18.94 C 39.362,18.908 39.262,18.916 39.178,18.959 C 39.092,19.001 39.028,19.076 38.998,19.167 L 31.873,40.662 C 31.811,40.851 31.914,41.054 32.101,41.117 L 134.19,75.127 C 134.044,75.078 133.944,74.941 133.944,74.787 C 133.943,74.631 134.043,74.495 134.189,74.444 z" id="path2390" style="fill:#ffffff"/>
</svg>